<svg width="97" height="114" viewBox="0 0 97 114" fill="none" xmlns="http://www.w3.org/2000/svg">
<path d="M85.1597 13.1014H10.9184C9.71747 13.1014 8.73486 14.084 8.73486 15.285V82.9756C8.73486 85.3775 10.7001 87.3427 13.102 87.3427H18.2334C20.144 87.3427 21.7817 88.8166 22 90.7272C23.6377 103.61 34.6647 113.545 47.9845 113.545C61.3042 113.545 72.3312 103.61 73.9689 90.7272C74.2419 88.8166 75.8249 87.3427 77.7356 87.3427H82.8669C85.2689 87.3427 87.2341 85.3775 87.2341 82.9756V15.285C87.3433 14.084 86.3606 13.1014 85.1597 13.1014ZM82.9761 82.9756H77.8447C73.7506 82.9756 70.2568 86.0871 69.711 90.1813C68.2916 100.99 59.0115 109.178 48.0391 109.178C37.0666 109.178 27.7865 100.99 26.3672 90.1813C25.8213 86.0871 22.3276 82.9756 18.2334 82.9756H13.102V17.4686H82.9761V82.9756Z" fill="#40A2CE"/>
<path d="M28.0587 10.9178H33.0809C34.1181 10.9178 34.9369 10.099 34.9369 9.0618V1.85603C34.9369 0.818837 34.1181 0 33.0809 0H28.0587C27.0215 0 26.2026 0.818837 26.2026 1.85603V9.0618C26.2026 10.099 27.0215 10.9178 28.0587 10.9178ZM28.3862 2.18357H32.7533V8.73426H28.3862V2.18357Z" fill="#40A2CE"/>
<path d="M62.9957 10.9178H68.0179C69.0551 10.9178 69.8739 10.099 69.8739 9.0618V1.85603C69.8739 0.818837 69.0551 0 68.0179 0H62.9957C61.9585 0 61.1396 0.818837 61.1396 1.85603V9.0618C61.1396 10.099 61.9585 10.9178 62.9957 10.9178ZM63.3232 2.18357H67.6903V8.73426H63.3232V2.18357Z" fill="#40A2CE"/>
<path d="M24.5651 3.27527H2.18357C0.982605 3.27527 0 4.25787 0 5.45883C0 6.6598 0.982605 7.6424 2.18357 7.6424H24.5651V3.27527Z" fill="#40A2CE"/>
<path d="M58.9568 3.27527H36.5752V7.6424H58.9568V3.27527Z" fill="#40A2CE"/>
<path d="M93.8938 3.27527H70.9663V7.6424H93.8938C95.0947 7.6424 96.0773 6.6598 96.0773 5.45883C96.0773 4.25787 95.0947 3.27527 93.8938 3.27527Z" fill="#40A2CE"/>
<path d="M58.4108 76.6977C58.5746 75.3876 57.5374 74.2412 56.2273 74.2412H39.8505C38.5404 74.2412 37.5032 75.3876 37.667 76.6977C38.2674 81.5016 40.451 91.7097 48.0389 91.7097C51.5326 91.7097 53.8253 89.5808 55.4084 86.7967C56.1727 86.7967 59.1751 86.6875 60.649 85.4866L63.3785 81.3378C63.3785 79.5364 61.3041 78.0625 59.0113 78.0625H58.1925C58.3017 77.5711 58.3562 77.1344 58.4108 76.6977ZM59.0113 80.246C59.9393 80.246 60.649 80.6281 60.9765 81.0103L59.0659 83.9581C58.5746 84.231 57.7558 84.3948 56.8823 84.5586L58.793 80.3006H59.0113V80.246ZM48.0389 89.5262C45.5824 89.5262 43.6718 88.0523 42.1979 85.0499C40.7785 82.2112 40.1235 78.8267 39.8505 76.4248H56.2273C55.6814 78.7721 55.2993 82.2112 53.8799 85.0499C52.3514 88.0523 50.4954 89.5262 48.0389 89.5262Z" fill="#40A2CE"/>
<path d="M43.1801 62.7228C42.9617 62.9412 42.5796 63.2687 42.1975 63.7054C41.8153 64.1421 41.5424 64.8518 41.4878 65.4523C41.4878 65.616 41.4878 65.7252 41.4878 65.9436C41.4878 66.0528 41.4878 66.1619 41.5424 66.2711C41.597 66.4895 41.597 66.7624 41.6516 66.9808C41.7607 67.4175 41.8699 67.7996 42.0337 68.1271C42.3066 68.7822 42.5796 69.3281 42.8525 69.6556C42.9617 69.8194 43.0709 69.9832 43.1255 70.0378C43.1801 70.1469 43.2346 70.2015 43.2346 70.2015C43.3438 70.3653 43.5622 70.4745 43.7805 70.4199C44.0535 70.3653 44.2718 70.0378 44.2173 69.7648V69.7102C44.2173 69.7102 44.1627 69.4919 44.1081 69.1643C44.0535 68.7822 43.9443 68.2909 43.8351 67.6904C43.7805 67.3629 43.7259 67.09 43.7259 66.7624C43.7259 66.5987 43.7259 66.4349 43.7259 66.3257C43.7259 66.2165 43.7259 66.1073 43.7259 65.9982C43.7259 65.9982 43.7259 65.889 43.7259 65.8344C43.7805 65.616 43.8351 65.5069 44.0535 65.2885C44.2172 65.0702 44.5448 64.7972 44.9269 64.4151C45.309 64.033 45.6912 63.4325 45.8549 62.7774C46.0187 62.0132 45.9095 61.5764 45.8549 61.1397C45.6912 60.2117 45.4728 59.4475 45.1999 58.7924C44.9815 58.1373 44.7086 57.646 44.5448 57.2639C44.381 56.8818 44.2718 56.718 44.2718 56.718C44.1627 56.5542 43.9443 56.4451 43.7259 56.4451C43.3984 56.4997 43.2346 56.7726 43.2892 57.1001C43.2892 57.1001 43.3438 57.3185 43.3984 57.7006C43.453 58.0827 43.5076 58.6286 43.6168 59.2291C43.7259 59.8842 43.7805 60.5938 43.8351 61.3581C43.8351 61.6856 43.8351 62.1769 43.7805 62.2315C43.5622 62.2861 43.453 62.4499 43.1801 62.7228Z" fill="#40A2CE"/>
<path d="M48.5299 56.6089C48.4208 56.4451 48.2024 56.3359 47.9841 56.3359C47.6565 56.3905 47.4928 56.6635 47.5473 56.991C47.5473 56.991 47.6019 57.2094 47.6565 57.5915C47.7111 57.9736 47.7657 58.5195 47.8749 59.12C47.9841 59.7751 48.0386 60.4847 48.0932 61.249C48.0932 61.5765 48.0932 62.0678 48.0386 62.1224C47.9841 62.2862 47.8749 62.4499 47.6019 62.7229C47.3836 62.9412 47.0015 63.2688 46.6193 63.7055C46.2372 64.1422 45.9643 64.8518 45.9097 65.4523C45.9097 65.6161 45.9097 65.7253 45.9097 65.9436C45.9097 66.0528 45.9097 66.162 45.9643 66.2712C46.0188 66.4895 46.0188 66.7625 46.0734 66.9808C46.1826 67.4175 46.2918 67.7997 46.4556 68.1272C46.7285 68.7823 47.0015 69.3282 47.2744 69.6557C47.3836 69.8195 47.4928 69.9832 47.5473 70.0378C47.6019 70.147 47.6565 70.2016 47.6565 70.2016C47.7657 70.3654 47.9841 70.4745 48.2024 70.4199C48.4754 70.3654 48.6937 70.0378 48.6391 69.7649V69.7103C48.6391 69.7103 48.5845 69.4919 48.5299 69.1644C48.4754 68.7823 48.3662 68.291 48.257 67.6905C48.2024 67.3629 48.1478 67.09 48.1478 66.7625C48.1478 66.5987 48.1478 66.4349 48.1478 66.3258C48.1478 66.2166 48.1478 66.1074 48.1478 65.9982C48.1478 65.9982 48.1478 65.889 48.1478 65.8345C48.2024 65.6161 48.257 65.5069 48.4754 65.2886C48.6391 65.0702 48.9667 64.7973 49.3488 64.4151C49.7309 64.033 50.113 63.4325 50.2768 62.7775C50.4406 62.0132 50.3314 61.5765 50.2768 61.1398C50.113 60.2118 49.8947 59.4475 49.6217 58.7924C49.4034 58.1374 49.1304 57.6461 48.9667 57.264C48.6937 56.7727 48.5299 56.6089 48.5299 56.6089Z" fill="#40A2CE"/>
<path d="M51.9144 62.7228C51.6961 62.9412 51.314 63.2687 50.9318 63.7054C50.5497 64.1421 50.2768 64.8518 50.2222 65.4523C50.2222 65.616 50.2222 65.7252 50.2222 65.9436C50.2222 66.0528 50.2222 66.1619 50.2768 66.2711C50.3313 66.4895 50.3313 66.7624 50.3859 66.9808C50.4951 67.4175 50.6043 67.7996 50.7681 68.1271C51.041 68.7822 51.314 69.3281 51.5869 69.6556C51.6961 69.8194 51.8053 69.9832 51.8598 70.0378C51.9144 70.1469 51.969 70.2015 51.969 70.2015C52.0782 70.3653 52.2966 70.4745 52.5149 70.4199C52.7879 70.3653 53.0062 70.0378 52.9516 69.7648V69.7102C52.9516 69.7102 52.897 69.4919 52.8424 69.1643C52.7879 68.7822 52.6787 68.2909 52.5695 67.6904C52.5149 67.3629 52.4603 67.09 52.4603 66.7624C52.4603 66.5987 52.4603 66.4349 52.4603 66.3257C52.4603 66.2165 52.4603 66.1073 52.4603 65.9982C52.4603 65.9982 52.4603 65.889 52.4603 65.8344C52.5149 65.616 52.5695 65.5069 52.7879 65.2885C52.9516 65.0702 53.2792 64.7972 53.6613 64.4151C54.0434 64.033 54.4255 63.4325 54.5893 62.7774C54.7531 62.0132 54.6439 61.5764 54.5893 61.1397C54.4255 60.2117 54.2072 59.4475 53.9342 58.7924C53.7159 58.1373 53.4429 57.646 53.2792 57.2639C53.1154 56.8818 53.0062 56.718 53.0062 56.718C52.897 56.5542 52.6787 56.4451 52.4603 56.4451C52.1328 56.4997 51.969 56.7726 52.0236 57.1001C52.0236 57.1001 52.0782 57.3185 52.1328 57.7006C52.1874 58.0827 52.242 58.6286 52.3511 59.2291C52.4603 59.8842 52.5149 60.5938 52.5695 61.3581C52.5695 61.6856 52.5695 62.1769 52.5149 62.2315C52.2966 62.2861 52.1874 62.4499 51.9144 62.7228Z" fill="#40A2CE"/>
<path d="M22.6006 45.8549C24.4021 45.8549 25.9851 45.4728 27.3499 44.7086L26.6402 43.0709C25.5484 43.453 24.3475 43.6714 22.9827 43.6714C22.1093 43.6714 21.4542 43.3438 20.9629 42.6342C20.4716 41.9245 20.3079 40.8327 20.3079 39.1951C20.3079 37.612 20.5262 36.4656 21.0175 35.8105C21.5088 35.1555 22.1093 34.8279 22.8736 34.8279C23.6378 34.8279 24.1837 34.8825 24.5658 35.0463C24.6204 35.7559 24.7842 36.5748 24.948 36.5748H26.7494C26.9132 36.5748 27.0769 35.8651 27.1315 35.3738C27.2407 34.8825 27.2953 34.555 27.2953 34.3366C27.2953 34.1183 27.2953 34.0091 27.2953 33.8999C26.2035 33.1357 24.6204 32.7535 23.1465 32.7535C21.3451 32.7535 19.9257 33.2994 18.9431 34.3912C17.9605 35.483 17.4692 37.1753 17.4692 39.4134C17.4692 41.7062 17.8514 43.3438 18.6702 44.3264C19.489 45.3636 20.7992 45.8549 22.6006 45.8549Z" fill="#40A2CE"/>
<path d="M33.2998 45.8549C35.1013 45.8549 36.5206 45.309 37.5032 44.1627C38.4858 43.0163 38.9771 41.324 38.9771 39.0859C38.9771 36.8477 38.5404 35.2101 37.6124 34.2274C36.6844 33.2448 35.3742 32.7535 33.5728 32.7535C31.7713 32.7535 30.352 33.2994 29.3694 34.3912C28.3868 35.483 27.8955 37.1753 27.8955 39.4134C27.8955 41.6516 28.3322 43.3438 29.2602 44.3264C30.1337 45.3636 31.4984 45.8549 33.2998 45.8549ZM31.4438 35.8105C31.8805 35.1555 32.5356 34.8279 33.409 34.8279C35.2105 34.8279 36.1385 36.3018 36.1385 39.3042C36.1385 40.8873 35.9201 42.0337 35.4288 42.7434C34.9375 43.453 34.2824 43.7805 33.4636 43.7805C32.6448 43.7805 31.9351 43.3984 31.4984 42.6888C31.0071 41.9791 30.7887 40.7781 30.7887 39.1951C30.7341 37.5574 30.9525 36.4656 31.4438 35.8105Z" fill="#40A2CE"/>
<path d="M39.8501 44.2173L40.0139 45.8549H45.2544L45.4728 44.2173C45.0907 43.8897 44.2172 43.5622 43.6713 43.3984V40.396H46.237C46.4008 40.9419 46.6192 40.9965 46.7829 41.1603L48.0385 40.9419V37.6666L46.7829 37.5028C46.6192 37.6666 46.4008 37.6666 46.237 38.2125H43.6713V34.9371H46.5646C46.7283 35.483 46.9467 36.0835 47.2196 36.3018L48.5844 36.1381V32.7535H40.0139L39.8501 34.3912C40.0139 34.6096 40.396 34.9371 40.9419 35.1009V43.5622C40.396 43.726 40.0139 44.0535 39.8501 44.2173Z" fill="#40A2CE"/>
<path d="M49.6763 44.2173L49.84 45.8549H55.0806L55.299 44.2173C54.9168 43.8897 54.0434 43.5622 53.4975 43.3984V40.396H56.0632C56.227 40.9419 56.4453 40.9965 56.6091 41.1603L57.8646 40.9419V37.6666L56.6091 37.5028C56.4453 37.6666 56.227 37.6666 56.0632 38.2125H53.4975V34.9371H56.3907C56.5545 35.483 56.7729 36.0835 57.0458 36.3018L58.4105 36.1381V32.7535H49.84L49.6763 34.3912C49.84 34.6096 50.2222 34.9371 50.7681 35.1009V43.5622C50.2222 43.726 49.84 44.0535 49.6763 44.2173Z" fill="#40A2CE"/>
<path d="M59.5024 44.2173L59.6662 45.8549H68.2367V42.4704L66.9812 42.3066C66.6536 42.5796 66.599 43.1255 66.4353 43.6714H63.3237V40.396H65.8894C66.0531 40.396 66.2715 40.9419 66.4353 41.0511L67.6908 40.7781V37.4482L66.4353 37.339C66.2715 37.5028 66.0531 37.612 65.8894 38.1579H63.3237V34.8825H66.2169C66.3807 35.4284 66.599 36.0289 66.872 36.2472L68.2367 36.0835V32.7535H59.6662L59.5024 34.3912C59.6662 34.6096 60.0483 34.9371 60.5942 35.1009V43.5622C60.0483 43.726 59.6662 44.0535 59.5024 44.2173Z" fill="#40A2CE"/>
<path d="M69.4922 44.2173L69.8197 45.8549H78.6086V42.4704L77.1893 42.3066C76.8617 42.5796 76.6434 43.1255 76.4796 43.6714H73.1497V40.396H76.0429C76.2067 40.396 76.2612 40.9419 76.425 41.0511L77.5168 40.7781V37.4482L76.425 37.339C76.2612 37.5028 76.2067 37.612 76.0429 38.1579H73.1497V34.8825H76.3704C76.5342 35.4284 76.8617 36.0289 77.1347 36.2472L78.6086 36.0835V32.7535H69.8197L69.4922 34.3912C69.656 34.6096 69.8743 34.9371 70.4202 35.1009V43.5622C69.8743 43.726 69.656 44.0535 69.4922 44.2173Z" fill="#40A2CE"/>
</svg>
