<svg width="84" height="82" viewBox="0 0 84 82" fill="none" xmlns="http://www.w3.org/2000/svg">
<path d="M84 26.3571V11.7143C84 5.23482 78.6375 0 72 0H12C5.3625 0 0 5.23482 0 11.7143V26.3571C0 32.8366 5.3625 38.0714 12 38.0714H15.1875C15.1875 38.1813 15.1875 38.2911 15.225 38.4375L23.9625 73.2143H3C1.35 73.2143 0 74.5321 0 76.1429V80.5357C0 81.3411 0.675 82 1.5 82H82.5C83.325 82 84 81.3411 84 80.5357V76.1429C84 74.5321 82.65 73.2143 81 73.2143H60.0375L68.9625 38.4375C69 38.3277 69 38.2179 69 38.0714H72C78.6375 38.0714 84 32.8366 84 26.3571ZM3 26.3571V11.7143C3 6.88214 7.05 2.92857 12 2.92857H72C76.95 2.92857 81 6.88214 81 11.7143V26.3571C81 31.1893 76.95 35.1429 72 35.1429H54.75H29.25H12C7.05 35.1429 3 31.1893 3 26.3571ZM48 45.9054L44.25 46.125C43.0125 46.125 42 47.1134 42 48.3214C42 49.5295 43.0125 50.5179 44.25 50.5179L48 50.7375V52.7143H36V43.9286H48V45.9054ZM57.75 46.8571C58.0125 46.967 58.5 47.7357 58.5 48.3214C58.5 48.9071 58.0125 49.6759 57.75 49.7857L44.3625 49.0536H44.325H44.25C43.8375 49.0536 43.5 48.7241 43.5 48.3214C43.5 47.9188 43.8375 47.5893 44.25 47.5893H44.2875H44.325L57.75 46.8571ZM48 41H36H30.75V38.0714H53.25V41H48ZM81 79.0714H3V76.1429H81V79.0714ZM57.0375 72.8482C57 72.958 57 73.0679 57 73.2143H27C27 73.1045 27 72.9946 26.9625 72.8482L18.225 38.0714H27.75V42.4643C27.75 43.2696 28.425 43.9286 29.25 43.9286H33V52.7143C33 54.325 34.35 55.6429 36 55.6429H48C49.65 55.6429 51 54.325 51 52.7143V50.8839L57.75 51.25C58.9875 51.25 60 49.5295 60 48.3214C60 47.1134 58.9875 45.3929 57.75 45.3929L51 45.7589V43.9286H54.75C55.575 43.9286 56.25 43.2696 56.25 42.4643V38.0714H65.9625L57.0375 72.8482Z" fill="#40A2CE"/>
<path d="M42 32.2143C48.6375 32.2143 54 26.9795 54 20.5C54 14.0205 48.6375 8.78571 42 8.78571C35.3625 8.78571 30 14.0205 30 20.5C30 26.9795 35.3625 32.2143 42 32.2143ZM42 11.7143C46.95 11.7143 51 15.6678 51 20.5C51 25.3321 46.95 29.2857 42 29.2857C37.05 29.2857 33 25.3321 33 20.5C33 15.6678 37.05 11.7143 42 11.7143Z" fill="#40A2CE"/>
<path d="M42 17.2054C42.4125 17.2054 42.75 16.8759 42.75 16.4732V15.0089C42.75 14.6063 42.4125 14.2768 42 14.2768C41.5875 14.2768 41.25 14.6063 41.25 15.0089V16.4732C41.25 16.8759 41.5875 17.2054 42 17.2054Z" fill="#40A2CE"/>
<path d="M45.375 20.5C45.375 20.9027 45.7125 21.2322 46.125 21.2322H47.625C48.0375 21.2322 48.375 20.9027 48.375 20.5C48.375 20.0973 48.0375 19.7679 47.625 19.7679H46.125C45.7125 19.7679 45.375 20.0973 45.375 20.5Z" fill="#40A2CE"/>
<path d="M36.375 21.2322H37.875C38.2875 21.2322 38.625 20.9027 38.625 20.5C38.625 20.0973 38.2875 19.7679 37.875 19.7679H36.375C35.9625 19.7679 35.625 20.0973 35.625 20.5C35.625 20.9027 35.9625 21.2322 36.375 21.2322Z" fill="#40A2CE"/>
<path d="M38.4752 18.1205C38.6252 18.267 38.8127 18.3402 39.0002 18.3402C39.1877 18.3402 39.3752 18.267 39.5252 18.1205C39.8252 17.8277 39.8252 17.3884 39.5252 17.0955L38.4752 16.0705C38.1752 15.7777 37.7252 15.7777 37.4252 16.0705C37.1252 16.3634 37.1252 16.8027 37.4252 17.0955L38.4752 18.1205Z" fill="#40A2CE"/>
<path d="M45.525 22.8795C45.225 22.5866 44.775 22.5866 44.475 22.8795C44.175 23.1723 44.175 23.6116 44.475 23.9045L45.525 24.9295C45.675 25.0759 45.8625 25.1491 46.05 25.1491C46.2375 25.1491 46.425 25.0759 46.575 24.9295C46.875 24.6366 46.875 24.1973 46.575 23.9045L45.525 22.8795Z" fill="#40A2CE"/>
<path d="M38.4752 22.8795L37.4252 23.9045C37.1252 24.1973 37.1252 24.6366 37.4252 24.9295C37.5752 25.0759 37.7627 25.1491 37.9502 25.1491C38.1377 25.1491 38.3252 25.0759 38.4752 24.9295L39.5252 23.9045C39.8252 23.6116 39.8252 23.1723 39.5252 22.8795C39.2627 22.6232 38.7752 22.6232 38.4752 22.8795Z" fill="#40A2CE"/>
<path d="M42.0001 21.9643C42.8251 21.9643 43.5001 21.3054 43.5001 20.5C43.5001 20.3536 43.4626 20.2437 43.4626 20.1339L46.5751 17.0955C46.8751 16.8027 46.8751 16.3634 46.5751 16.0705C46.2751 15.7777 45.8251 15.7777 45.5251 16.0705L42.4126 19.1089C42.3001 19.0723 42.1501 19.0723 42.0376 19.0723C41.2126 19.0723 40.5376 19.7312 40.5376 20.5366C40.5001 21.3054 41.1751 21.9643 42.0001 21.9643Z" fill="#40A2CE"/>
<path d="M61.5 23.4286H64.5C65.325 23.4286 66 22.7696 66 21.9643V19.0357C66 18.2303 65.325 17.5714 64.5 17.5714H61.5C60.675 17.5714 60 18.2303 60 19.0357V21.9643C60 22.7696 60.675 23.4286 61.5 23.4286ZM61.5 20.5H64.5V21.9643H61.5V20.5Z" fill="#40A2CE"/>
<path d="M70.5 23.4286H73.5C74.325 23.4286 75 22.7696 75 21.9643V19.0357C75 18.2303 74.325 17.5714 73.5 17.5714H70.5C69.675 17.5714 69 18.2303 69 19.0357V21.9643C69 22.7696 69.675 23.4286 70.5 23.4286ZM70.5 19.0357H73.5V20.5H70.5V19.0357Z" fill="#40A2CE"/>
<path d="M42 58.5714C42 58.5714 39 61.3536 39 62.9643C39 64.575 40.35 65.8928 42 65.8928C43.65 65.8928 45 64.575 45 62.9643C45 61.3536 42 58.5714 42 58.5714Z" fill="#40A2CE"/>
</svg>
