<svg width="39" height="39" viewBox="0 0 39 39" fill="none" xmlns="http://www.w3.org/2000/svg">
<path fill-rule="evenodd" clip-rule="evenodd" d="M27.1502 15.011V11.9307V11.4702L26.689 11.4718L23.6094 11.4827L23.6211 15.0227L27.1502 15.011Z" fill="#6B350E"/>
<path fill-rule="evenodd" clip-rule="evenodd" d="M19.1219 23.1866C21.1495 23.1866 22.8001 21.5375 22.8001 19.51C22.8001 18.71 22.5394 17.9686 22.1024 17.3653C21.4359 16.4397 20.348 15.8318 19.1219 15.8318C17.8951 15.8318 16.8095 16.4397 16.1407 17.3653C15.7044 17.9686 15.4453 18.71 15.4453 19.51C15.4453 21.5375 17.0936 23.1866 19.1219 23.1866Z" fill="#6B350E"/>
<mask id="mask0_202_68" style="mask-type:luminance" maskUnits="userSpaceOnUse" x="0" y="0" width="39" height="39">
<path fill-rule="evenodd" clip-rule="evenodd" d="M0 0H38.4347V38.4347H0V0Z" fill="white"/>
</mask>
<g mask="url(#mask0_202_68)">
<path fill-rule="evenodd" clip-rule="evenodd" d="M29.5685 17.3654V25.9197C29.5685 28.1455 27.7563 29.9561 25.5305 29.9561H12.712C10.4854 29.9561 8.67478 28.1455 8.67478 25.9197V17.3654V13.1011C8.67478 10.8745 10.4854 9.06392 12.712 9.06392H25.5305C27.7563 9.06392 29.5685 10.8745 29.5685 13.1011V17.3654ZM19.2176 0C8.60376 0 -0.000488281 8.60269 -0.000488281 19.2166C-0.000488281 29.8304 8.60376 38.4347 19.2176 38.4347C29.8299 38.4347 38.4342 29.8304 38.4342 19.2166C38.4342 8.60269 29.8291 0 19.2176 0Z" fill="#6B350E"/>
</g>
<path fill-rule="evenodd" clip-rule="evenodd" d="M24.8344 19.5099C24.8344 22.6589 22.273 25.2226 19.1224 25.2226C15.9718 25.2226 13.4104 22.6589 13.4104 19.5099C13.4104 18.7505 13.5619 18.0286 13.8295 17.3652H10.7109V25.9195C10.7109 27.0231 11.6092 27.9206 12.7127 27.9206H25.5313C26.6348 27.9206 27.5316 27.0231 27.5316 25.9195V17.3652H24.4114C24.683 18.0286 24.8344 18.7513 24.8344 19.5099Z" fill="#6B350E"/>
</svg>
