<svg width="39" height="39" viewBox="0 0 39 39" fill="none" xmlns="http://www.w3.org/2000/svg">
<mask id="mask0_202_63" style="mask-type:luminance" maskUnits="userSpaceOnUse" x="0" y="0" width="39" height="39">
<path fill-rule="evenodd" clip-rule="evenodd" d="M0 0H38.4347V38.4347H0" fill="white"/>
</mask>
<g mask="url(#mask0_202_63)">
<path fill-rule="evenodd" clip-rule="evenodd" d="M28.8978 15.3433C28.9087 15.5509 28.9126 15.7592 28.9126 15.97C28.9126 22.3703 24.0404 29.7492 15.1326 29.7492C12.3979 29.7492 9.85216 28.9477 7.7091 27.5742C8.08761 27.6187 8.47236 27.6413 8.86335 27.6413C11.1328 27.6413 13.2213 26.8671 14.8781 25.5685C12.7593 25.5287 10.9713 24.1278 10.3548 22.204C10.6498 22.2618 10.9533 22.2899 11.2655 22.2899C11.708 22.2899 12.1349 22.2329 12.5415 22.1213C10.3251 21.6765 8.65654 19.7176 8.65654 17.3732C8.65654 17.3521 8.65654 17.3318 8.65654 17.3107C9.30898 17.6736 10.0559 17.8914 10.8503 17.9171C9.55013 17.047 8.69556 15.5665 8.69556 13.8854C8.69556 12.9981 8.93437 12.1654 9.35112 11.4505C11.7408 14.3802 15.3089 16.3087 19.3344 16.51C19.2525 16.1565 19.2087 15.785 19.2087 15.4065C19.2087 12.7327 21.3768 10.5639 24.0521 10.5639C25.4452 10.5639 26.704 11.1524 27.5867 12.0928C28.6902 11.8766 29.7266 11.4723 30.6631 10.9174C30.2994 12.0491 29.5331 12.9981 28.5318 13.5967C29.5128 13.4796 30.4462 13.2189 31.3148 12.8342C30.667 13.8074 29.8445 14.6604 28.8978 15.3433ZM19.2181 0C8.60347 0 0 8.60581 0 19.2181C0 29.8312 8.60347 38.4347 19.2181 38.4347C29.8312 38.4347 38.4347 29.8312 38.4347 19.2181C38.4347 8.60581 29.8304 0 19.2181 0Z" fill="#6B350E"/>
</g>
</svg>
